<?xml version="1.0" standalone="no"?>
<!DOCTYPE svg PUBLIC "-//W3C//DTD SVG 20010904//EN"
 "http://www.w3.org/TR/2001/REC-SVG-20010904/DTD/svg10.dtd">
<svg version="1.0" xmlns="http://www.w3.org/2000/svg"
 width="92.000000pt" height="92.000000pt" viewBox="0 0 92.000000 92.000000"
 preserveAspectRatio="xMidYMid meet">
<metadata>
Created by potrace 1.11, written by Peter Selinger 2001-2013
</metadata>
<g transform="translate(0.000000,92.000000) scale(0.100000,-0.100000)"
fill="#000000" stroke="none">
<path d="M198 826 c0 -6 -2 -174 -3 -374 -1 -285 1 -367 12 -380 28 -37 33 11
33 371 0 278 3 357 13 358 102 4 272 -1 305 -10 80 -22 145 -104 145 -182 0
-44 -22 -129 -34 -129 -19 0 -19 -41 0 -66 12 -15 21 -33 21 -40 0 -8 3 -14 8
-14 8 0 6 -57 -4 -118 -7 -44 -74 -117 -122 -133 -20 -7 -77 -13 -127 -13 -77
-1 -90 -3 -93 -18 -3 -16 7 -18 106 -18 60 0 112 3 116 8 4 4 12 8 17 8 5 1
13 2 18 3 16 2 111 103 105 112 -3 5 0 9 6 9 6 0 8 5 5 10 -3 5 -2 10 3 10 6
0 10 33 9 75 0 41 -4 75 -8 75 -5 0 -6 6 -4 13 3 6 -3 22 -13 35 -18 23 -18
25 5 72 18 39 22 61 20 118 -2 45 -10 79 -20 96 -10 14 -15 26 -11 26 6 0 -52
56 -78 75 -13 9 -27 14 -53 19 -5 1 -14 4 -20 7 -20 12 -355 7 -357 -5z"/>
<path d="M353 683 c-7 -2 -13 -10 -13 -17 0 -8 24 -11 78 -11 88 1 115 -7 130
-40 16 -34 -24 -75 -73 -75 -24 0 -35 -4 -35 -15 0 -15 5 -16 53 -18 38 -1 62
12 81 44 29 49 13 99 -41 127 -21 12 -156 15 -180 5z"/>
<path d="M391 390 c-25 -3 -46 -11 -49 -17 -3 -10 18 -13 80 -13 93 0 128 -15
128 -54 0 -31 -36 -61 -73 -61 -22 0 -33 -5 -35 -17 -3 -15 4 -18 43 -18 56 0
93 29 101 81 9 55 -27 91 -97 98 -30 3 -74 4 -98 1z"/>
</g>
</svg>
